# xmcd
#
# Track frame offsets: 
#        150
#        18471
#        42027
#        59479
#        73166
#        96301
#        115724
#        131866
#        150292
#        167529
#        184183
#        202244
#        220569
#        240223
#        253911
#
# Disc length: 3622 seconds
#
# Revision: 6
# Processed by: cddbd v1.5.2PL0 Copyright (c) Steve Scherf et al.
# Submitted via: ExactAudioCopyFreeDBPlugin 1.0
#
DISCID=d00e240f
DTITLE=張國榮 - 光榮歲月
DYEAR=1900
DGENRE=Blues
TTITLE0=為你鍾情
TTITLE1=風繼續吹
TTITLE2=Monica
TTITLE3=柔情蜜意
TTITLE4=誰令你心癡
TTITLE5=當年情
TTITLE6=黑色午夜
TTITLE7=我願意
TTITLE8=不羈的風
TTITLE9=一片癡
TTITLE10=少女心事
TTITLE11=分手
TTITLE12=片段
TTITLE13=戀愛交叉
TTITLE14=只怕不再遇上
EXTD=
EXTT0=
EXTT1=
EXTT2=
EXTT3=
EXTT4=
EXTT5=
EXTT6=
EXTT7=
EXTT8=
EXTT9=
EXTT10=
EXTT11=
EXTT12=
EXTT13=
EXTT14=
PLAYORDER=
